<svg width="1220" height="440" viewBox="0 0 1220 440" fill="none" xmlns="http://www.w3.org/2000/svg">
<g opacity="0.3">
<mask id="mask0_84_4" style="mask-type:alpha" maskUnits="userSpaceOnUse" x="0" y="286" width="11" height="11">
<path d="M5.22838 296.425C8.11594 296.425 10.4568 294.091 10.4568 291.212C10.4568 288.334 8.11594 286 5.22838 286C2.34082 286 0 288.334 0 291.212C0 294.091 2.34082 296.425 5.22838 296.425Z" fill="url(#paint0_linear_84_4)"/>
</mask>
<g mask="url(#mask0_84_4)">
<path d="M5.22838 296.425C8.11594 296.425 10.4568 294.091 10.4568 291.212C10.4568 288.334 8.11594 286 5.22838 286C2.34082 286 0 288.334 0 291.212C0 294.091 2.34082 296.425 5.22838 296.425Z" fill="url(#paint1_linear_84_4)"/>
</g>
<mask id="mask1_84_4" style="mask-type:alpha" maskUnits="userSpaceOnUse" x="30" y="286" width="11" height="11">
<path d="M35.5095 296.425C38.397 296.425 40.7378 294.091 40.7378 291.212C40.7378 288.334 38.397 286 35.5095 286C32.6219 286 30.2811 288.334 30.2811 291.212C30.2811 294.091 32.6219 296.425 35.5095 296.425Z" fill="url(#paint2_linear_84_4)"/>
</mask>
<g mask="url(#mask1_84_4)">
<path d="M35.5095 296.425C38.397 296.425 40.7378 294.091 40.7378 291.212C40.7378 288.334 38.397 286 35.5095 286C32.6219 286 30.2811 288.334 30.2811 291.212C30.2811 294.091 32.6219 296.425 35.5095 296.425Z" fill="url(#paint3_linear_84_4)"/>
</g>
<mask id="mask2_84_4" style="mask-type:alpha" maskUnits="userSpaceOnUse" x="60" y="286" width="12" height="11">
<path d="M65.7905 296.425C68.6781 296.425 71.0189 294.091 71.0189 291.212C71.0189 288.334 68.6781 286 65.7905 286C62.9029 286 60.5621 288.334 60.5621 291.212C60.5621 294.091 62.9029 296.425 65.7905 296.425Z" fill="url(#paint4_linear_84_4)"/>
</mask>
<g mask="url(#mask2_84_4)">
<path d="M65.7905 296.425C68.6781 296.425 71.0189 294.091 71.0189 291.212C71.0189 288.334 68.6781 286 65.7905 286C62.9029 286 60.5621 288.334 60.5621 291.212C60.5621 294.091 62.9029 296.425 65.7905 296.425Z" fill="url(#paint5_linear_84_4)"/>
</g>
<mask id="mask3_84_4" style="mask-type:alpha" maskUnits="userSpaceOnUse" x="90" y="286" width="12" height="11">
<path d="M96.0716 296.425C98.9592 296.425 101.3 294.091 101.3 291.212C101.3 288.334 98.9592 286 96.0716 286C93.184 286 90.8432 288.334 90.8432 291.212C90.8432 294.091 93.184 296.425 96.0716 296.425Z" fill="url(#paint6_linear_84_4)"/>
</mask>
<g mask="url(#mask3_84_4)">
<path d="M96.0716 296.425C98.9592 296.425 101.3 294.091 101.3 291.212C101.3 288.334 98.9592 286 96.0716 286C93.184 286 90.8432 288.334 90.8432 291.212C90.8432 294.091 93.184 296.425 96.0716 296.425Z" fill="url(#paint7_linear_84_4)"/>
</g>
<mask id="mask4_84_4" style="mask-type:alpha" maskUnits="userSpaceOnUse" x="121" y="286" width="11" height="11">
<path d="M126.353 296.425C129.24 296.425 131.581 294.091 131.581 291.212C131.581 288.334 129.24 286 126.353 286C123.465 286 121.124 288.334 121.124 291.212C121.124 294.091 123.465 296.425 126.353 296.425Z" fill="url(#paint8_linear_84_4)"/>
</mask>
<g mask="url(#mask4_84_4)">
<path d="M126.353 296.425C129.24 296.425 131.581 294.091 131.581 291.212C131.581 288.334 129.24 286 126.353 286C123.465 286 121.124 288.334 121.124 291.212C121.124 294.091 123.465 296.425 126.353 296.425Z" fill="url(#paint9_linear_84_4)"/>
</g>
<mask id="mask5_84_4" style="mask-type:alpha" maskUnits="userSpaceOnUse" x="0" y="312" width="11" height="11">
<path d="M5.22838 322.596C8.11594 322.596 10.4568 320.262 10.4568 317.383C10.4568 314.505 8.11594 312.171 5.22838 312.171C2.34082 312.171 0 314.505 0 317.383C0 320.262 2.34082 322.596 5.22838 322.596Z" fill="url(#paint10_linear_84_4)"/>
</mask>
<g mask="url(#mask5_84_4)">
<path d="M5.22838 322.596C8.11594 322.596 10.4568 320.262 10.4568 317.383C10.4568 314.505 8.11594 312.171 5.22838 312.171C2.34082 312.171 0 314.505 0 317.383C0 320.262 2.34082 322.596 5.22838 322.596Z" fill="url(#paint11_linear_84_4)"/>
</g>
<mask id="mask6_84_4" style="mask-type:alpha" maskUnits="userSpaceOnUse" x="30" y="312" width="11" height="11">
<path d="M35.5095 322.596C38.397 322.596 40.7378 320.262 40.7378 317.383C40.7378 314.505 38.397 312.171 35.5095 312.171C32.6219 312.171 30.2811 314.505 30.2811 317.383C30.2811 320.262 32.6219 322.596 35.5095 322.596Z" fill="url(#paint12_linear_84_4)"/>
</mask>
<g mask="url(#mask6_84_4)">
<path d="M35.5095 322.596C38.397 322.596 40.7378 320.262 40.7378 317.383C40.7378 314.505 38.397 312.171 35.5095 312.171C32.6219 312.171 30.2811 314.505 30.2811 317.383C30.2811 320.262 32.6219 322.596 35.5095 322.596Z" fill="url(#paint13_linear_84_4)"/>
</g>
<mask id="mask7_84_4" style="mask-type:alpha" maskUnits="userSpaceOnUse" x="60" y="312" width="12" height="11">
<path d="M65.7905 322.596C68.6781 322.596 71.0189 320.262 71.0189 317.383C71.0189 314.505 68.6781 312.171 65.7905 312.171C62.9029 312.171 60.5621 314.505 60.5621 317.383C60.5621 320.262 62.9029 322.596 65.7905 322.596Z" fill="url(#paint14_linear_84_4)"/>
</mask>
<g mask="url(#mask7_84_4)">
<path d="M65.7905 322.596C68.6781 322.596 71.0189 320.262 71.0189 317.383C71.0189 314.505 68.6781 312.171 65.7905 312.171C62.9029 312.171 60.5621 314.505 60.5621 317.383C60.5621 320.262 62.9029 322.596 65.7905 322.596Z" fill="url(#paint15_linear_84_4)"/>
</g>
<mask id="mask8_84_4" style="mask-type:alpha" maskUnits="userSpaceOnUse" x="90" y="312" width="12" height="11">
<path d="M96.0716 322.596C98.9592 322.596 101.3 320.262 101.3 317.383C101.3 314.505 98.9592 312.171 96.0716 312.171C93.184 312.171 90.8432 314.505 90.8432 317.383C90.8432 320.262 93.184 322.596 96.0716 322.596Z" fill="url(#paint16_linear_84_4)"/>
</mask>
<g mask="url(#mask8_84_4)">
<path d="M96.0716 322.596C98.9592 322.596 101.3 320.262 101.3 317.383C101.3 314.505 98.9592 312.171 96.0716 312.171C93.184 312.171 90.8432 314.505 90.8432 317.383C90.8432 320.262 93.184 322.596 96.0716 322.596Z" fill="url(#paint17_linear_84_4)"/>
</g>
<mask id="mask9_84_4" style="mask-type:alpha" maskUnits="userSpaceOnUse" x="121" y="312" width="11" height="11">
<path d="M126.353 322.596C129.24 322.596 131.581 320.262 131.581 317.383C131.581 314.505 129.24 312.171 126.353 312.171C123.465 312.171 121.124 314.505 121.124 317.383C121.124 320.262 123.465 322.596 126.353 322.596Z" fill="url(#paint18_linear_84_4)"/>
</mask>
<g mask="url(#mask9_84_4)">
<path d="M126.353 322.596C129.24 322.596 131.581 320.262 131.581 317.383C131.581 314.505 129.24 312.171 126.353 312.171C123.465 312.171 121.124 314.505 121.124 317.383C121.124 320.262 123.465 322.596 126.353 322.596Z" fill="url(#paint19_linear_84_4)"/>
</g>
<mask id="mask10_84_4" style="mask-type:alpha" maskUnits="userSpaceOnUse" x="0" y="338" width="11" height="11">
<path d="M5.22838 348.713C8.11594 348.713 10.4568 346.379 10.4568 343.5C10.4568 340.621 8.11594 338.288 5.22838 338.288C2.34082 338.288 0 340.621 0 343.5C0 346.379 2.34082 348.713 5.22838 348.713Z" fill="url(#paint20_linear_84_4)"/>
</mask>
<g mask="url(#mask10_84_4)">
<path d="M5.22838 348.713C8.11594 348.713 10.4568 346.379 10.4568 343.5C10.4568 340.621 8.11594 338.288 5.22838 338.288C2.34082 338.288 0 340.621 0 343.5C0 346.379 2.34082 348.713 5.22838 348.713Z" fill="url(#paint21_linear_84_4)"/>
</g>
<mask id="mask11_84_4" style="mask-type:alpha" maskUnits="userSpaceOnUse" x="30" y="338" width="11" height="11">
<path d="M35.5095 348.713C38.397 348.713 40.7378 346.379 40.7378 343.5C40.7378 340.621 38.397 338.288 35.5095 338.288C32.6219 338.288 30.2811 340.621 30.2811 343.5C30.2811 346.379 32.6219 348.713 35.5095 348.713Z" fill="url(#paint22_linear_84_4)"/>
</mask>
<g mask="url(#mask11_84_4)">
<path d="M35.5095 348.713C38.397 348.713 40.7378 346.379 40.7378 343.5C40.7378 340.621 38.397 338.288 35.5095 338.288C32.6219 338.288 30.2811 340.621 30.2811 343.5C30.2811 346.379 32.6219 348.713 35.5095 348.713Z" fill="url(#paint23_linear_84_4)"/>
</g>
<mask id="mask12_84_4" style="mask-type:alpha" maskUnits="userSpaceOnUse" x="60" y="338" width="12" height="11">
<path d="M65.7905 348.713C68.6781 348.713 71.0189 346.379 71.0189 343.5C71.0189 340.621 68.6781 338.288 65.7905 338.288C62.9029 338.288 60.5621 340.621 60.5621 343.5C60.5621 346.379 62.9029 348.713 65.7905 348.713Z" fill="url(#paint24_linear_84_4)"/>
</mask>
<g mask="url(#mask12_84_4)">
<path d="M65.7905 348.713C68.6781 348.713 71.0189 346.379 71.0189 343.5C71.0189 340.621 68.6781 338.288 65.7905 338.288C62.9029 338.288 60.5621 340.621 60.5621 343.5C60.5621 346.379 62.9029 348.713 65.7905 348.713Z" fill="url(#paint25_linear_84_4)"/>
</g>
<mask id="mask13_84_4" style="mask-type:alpha" maskUnits="userSpaceOnUse" x="90" y="338" width="12" height="11">
<path d="M96.0716 348.713C98.9592 348.713 101.3 346.379 101.3 343.5C101.3 340.621 98.9592 338.288 96.0716 338.288C93.184 338.288 90.8432 340.621 90.8432 343.5C90.8432 346.379 93.184 348.713 96.0716 348.713Z" fill="url(#paint26_linear_84_4)"/>
</mask>
<g mask="url(#mask13_84_4)">
<path d="M96.0716 348.713C98.9592 348.713 101.3 346.379 101.3 343.5C101.3 340.621 98.9592 338.288 96.0716 338.288C93.184 338.288 90.8432 340.621 90.8432 343.5C90.8432 346.379 93.184 348.713 96.0716 348.713Z" fill="url(#paint27_linear_84_4)"/>
</g>
<mask id="mask14_84_4" style="mask-type:alpha" maskUnits="userSpaceOnUse" x="121" y="338" width="11" height="11">
<path d="M126.353 348.713C129.24 348.713 131.581 346.379 131.581 343.5C131.581 340.621 129.24 338.288 126.353 338.288C123.465 338.288 121.124 340.621 121.124 343.5C121.124 346.379 123.465 348.713 126.353 348.713Z" fill="url(#paint28_linear_84_4)"/>
</mask>
<g mask="url(#mask14_84_4)">
<path d="M126.353 348.713C129.24 348.713 131.581 346.379 131.581 343.5C131.581 340.621 129.24 338.288 126.353 338.288C123.465 338.288 121.124 340.621 121.124 343.5C121.124 346.379 123.465 348.713 126.353 348.713Z" fill="url(#paint29_linear_84_4)"/>
</g>
<mask id="mask15_84_4" style="mask-type:alpha" maskUnits="userSpaceOnUse" x="0" y="364" width="11" height="11">
<path d="M5.22838 374.883C8.11594 374.883 10.4568 372.55 10.4568 369.671C10.4568 366.792 8.11594 364.458 5.22838 364.458C2.34082 364.458 0 366.792 0 369.671C0 372.55 2.34082 374.883 5.22838 374.883Z" fill="url(#paint30_linear_84_4)"/>
</mask>
<g mask="url(#mask15_84_4)">
<path d="M5.22838 374.883C8.11594 374.883 10.4568 372.55 10.4568 369.671C10.4568 366.792 8.11594 364.458 5.22838 364.458C2.34082 364.458 0 366.792 0 369.671C0 372.55 2.34082 374.883 5.22838 374.883Z" fill="url(#paint31_linear_84_4)"/>
</g>
<mask id="mask16_84_4" style="mask-type:alpha" maskUnits="userSpaceOnUse" x="30" y="364" width="11" height="11">
<path d="M35.5095 374.883C38.397 374.883 40.7378 372.55 40.7378 369.671C40.7378 366.792 38.397 364.458 35.5095 364.458C32.6219 364.458 30.2811 366.792 30.2811 369.671C30.2811 372.55 32.6219 374.883 35.5095 374.883Z" fill="url(#paint32_linear_84_4)"/>
</mask>
<g mask="url(#mask16_84_4)">
<path d="M35.5095 374.883C38.397 374.883 40.7378 372.55 40.7378 369.671C40.7378 366.792 38.397 364.458 35.5095 364.458C32.6219 364.458 30.2811 366.792 30.2811 369.671C30.2811 372.55 32.6219 374.883 35.5095 374.883Z" fill="url(#paint33_linear_84_4)"/>
</g>
<mask id="mask17_84_4" style="mask-type:alpha" maskUnits="userSpaceOnUse" x="60" y="364" width="12" height="11">
<path d="M65.7905 374.883C68.6781 374.883 71.0189 372.55 71.0189 369.671C71.0189 366.792 68.6781 364.458 65.7905 364.458C62.9029 364.458 60.5621 366.792 60.5621 369.671C60.5621 372.55 62.9029 374.883 65.7905 374.883Z" fill="url(#paint34_linear_84_4)"/>
</mask>
<g mask="url(#mask17_84_4)">
<path d="M65.7905 374.883C68.6781 374.883 71.0189 372.55 71.0189 369.671C71.0189 366.792 68.6781 364.458 65.7905 364.458C62.9029 364.458 60.5621 366.792 60.5621 369.671C60.5621 372.55 62.9029 374.883 65.7905 374.883Z" fill="url(#paint35_linear_84_4)"/>
</g>
<mask id="mask18_84_4" style="mask-type:alpha" maskUnits="userSpaceOnUse" x="90" y="364" width="12" height="11">
<path d="M96.0716 374.883C98.9592 374.883 101.3 372.55 101.3 369.671C101.3 366.792 98.9592 364.458 96.0716 364.458C93.184 364.458 90.8432 366.792 90.8432 369.671C90.8432 372.55 93.184 374.883 96.0716 374.883Z" fill="url(#paint36_linear_84_4)"/>
</mask>
<g mask="url(#mask18_84_4)">
<path d="M96.0716 374.883C98.9592 374.883 101.3 372.55 101.3 369.671C101.3 366.792 98.9592 364.458 96.0716 364.458C93.184 364.458 90.8432 366.792 90.8432 369.671C90.8432 372.55 93.184 374.883 96.0716 374.883Z" fill="url(#paint37_linear_84_4)"/>
</g>
<mask id="mask19_84_4" style="mask-type:alpha" maskUnits="userSpaceOnUse" x="121" y="364" width="11" height="11">
<path d="M126.353 374.883C129.24 374.883 131.581 372.55 131.581 369.671C131.581 366.792 129.24 364.458 126.353 364.458C123.465 364.458 121.124 366.792 121.124 369.671C121.124 372.55 123.465 374.883 126.353 374.883Z" fill="url(#paint38_linear_84_4)"/>
</mask>
<g mask="url(#mask19_84_4)">
<path d="M126.353 374.883C129.24 374.883 131.581 372.55 131.581 369.671C131.581 366.792 129.24 364.458 126.353 364.458C123.465 364.458 121.124 366.792 121.124 369.671C121.124 372.55 123.465 374.883 126.353 374.883Z" fill="url(#paint39_linear_84_4)"/>
</g>
<mask id="mask20_84_4" style="mask-type:alpha" maskUnits="userSpaceOnUse" x="0" y="390" width="11" height="11">
<path d="M5.22838 401C8.11594 401 10.4568 398.666 10.4568 395.787C10.4568 392.909 8.11594 390.575 5.22838 390.575C2.34082 390.575 0 392.909 0 395.787C0 398.666 2.34082 401 5.22838 401Z" fill="url(#paint40_linear_84_4)"/>
</mask>
<g mask="url(#mask20_84_4)">
<path d="M5.22838 401C8.11594 401 10.4568 398.666 10.4568 395.787C10.4568 392.909 8.11594 390.575 5.22838 390.575C2.34082 390.575 0 392.909 0 395.787C0 398.666 2.34082 401 5.22838 401Z" fill="url(#paint41_linear_84_4)"/>
</g>
<mask id="mask21_84_4" style="mask-type:alpha" maskUnits="userSpaceOnUse" x="30" y="390" width="11" height="11">
<path d="M35.5095 401C38.397 401 40.7378 398.666 40.7378 395.787C40.7378 392.909 38.397 390.575 35.5095 390.575C32.6219 390.575 30.2811 392.909 30.2811 395.787C30.2811 398.666 32.6219 401 35.5095 401Z" fill="url(#paint42_linear_84_4)"/>
</mask>
<g mask="url(#mask21_84_4)">
<path d="M35.5095 401C38.397 401 40.7378 398.666 40.7378 395.787C40.7378 392.909 38.397 390.575 35.5095 390.575C32.6219 390.575 30.2811 392.909 30.2811 395.787C30.2811 398.666 32.6219 401 35.5095 401Z" fill="url(#paint43_linear_84_4)"/>
</g>
<mask id="mask22_84_4" style="mask-type:alpha" maskUnits="userSpaceOnUse" x="60" y="390" width="12" height="11">
<path d="M65.7905 401C68.6781 401 71.0189 398.666 71.0189 395.787C71.0189 392.909 68.6781 390.575 65.7905 390.575C62.9029 390.575 60.5621 392.909 60.5621 395.787C60.5621 398.666 62.9029 401 65.7905 401Z" fill="url(#paint44_linear_84_4)"/>
</mask>
<g mask="url(#mask22_84_4)">
<path d="M65.7905 401C68.6781 401 71.0189 398.666 71.0189 395.787C71.0189 392.909 68.6781 390.575 65.7905 390.575C62.9029 390.575 60.5621 392.909 60.5621 395.787C60.5621 398.666 62.9029 401 65.7905 401Z" fill="url(#paint45_linear_84_4)"/>
</g>
<mask id="mask23_84_4" style="mask-type:alpha" maskUnits="userSpaceOnUse" x="90" y="390" width="12" height="11">
<path d="M96.0716 401C98.9592 401 101.3 398.666 101.3 395.787C101.3 392.909 98.9592 390.575 96.0716 390.575C93.184 390.575 90.8432 392.909 90.8432 395.787C90.8432 398.666 93.184 401 96.0716 401Z" fill="url(#paint46_linear_84_4)"/>
</mask>
<g mask="url(#mask23_84_4)">
<path d="M96.0716 401C98.9592 401 101.3 398.666 101.3 395.787C101.3 392.909 98.9592 390.575 96.0716 390.575C93.184 390.575 90.8432 392.909 90.8432 395.787C90.8432 398.666 93.184 401 96.0716 401Z" fill="url(#paint47_linear_84_4)"/>
</g>
<mask id="mask24_84_4" style="mask-type:alpha" maskUnits="userSpaceOnUse" x="121" y="390" width="11" height="11">
<path d="M126.353 401C129.24 401 131.581 398.666 131.581 395.787C131.581 392.909 129.24 390.575 126.353 390.575C123.465 390.575 121.124 392.909 121.124 395.787C121.124 398.666 123.465 401 126.353 401Z" fill="url(#paint48_linear_84_4)"/>
</mask>
<g mask="url(#mask24_84_4)">
<path d="M126.353 401C129.24 401 131.581 398.666 131.581 395.787C131.581 392.909 129.24 390.575 126.353 390.575C123.465 390.575 121.124 392.909 121.124 395.787C121.124 398.666 123.465 401 126.353 401Z" fill="url(#paint49_linear_84_4)"/>
</g>
</g>
<rect x="52" y="15" width="1120" height="425" rx="24" fill="url(#paint50_linear_84_4)"/>
<g opacity="0.26">
<mask id="mask25_84_4" style="mask-type:alpha" maskUnits="userSpaceOnUse" x="1088" y="0" width="11" height="11">
<path d="M1093.23 10.425C1096.12 10.425 1098.46 8.09121 1098.46 5.21245C1098.46 2.33368 1096.12 0 1093.23 0C1090.34 0 1088 2.33368 1088 5.21245C1088 8.09121 1090.34 10.425 1093.23 10.425Z" fill="url(#paint51_linear_84_4)"/>
</mask>
<g mask="url(#mask25_84_4)">
<path d="M1093.23 10.425C1096.12 10.425 1098.46 8.09121 1098.46 5.21245C1098.46 2.33368 1096.12 0 1093.23 0C1090.34 0 1088 2.33368 1088 5.21245C1088 8.09121 1090.34 10.425 1093.23 10.425Z" fill="url(#paint52_linear_84_4)"/>
</g>
<mask id="mask26_84_4" style="mask-type:alpha" maskUnits="userSpaceOnUse" x="1118" y="0" width="11" height="11">
<path d="M1123.51 10.425C1126.4 10.425 1128.74 8.09121 1128.74 5.21245C1128.74 2.33368 1126.4 0 1123.51 0C1120.62 0 1118.28 2.33368 1118.28 5.21245C1118.28 8.09121 1120.62 10.425 1123.51 10.425Z" fill="url(#paint53_linear_84_4)"/>
</mask>
<g mask="url(#mask26_84_4)">
<path d="M1123.51 10.425C1126.4 10.425 1128.74 8.09121 1128.74 5.21245C1128.74 2.33368 1126.4 0 1123.51 0C1120.62 0 1118.28 2.33368 1118.28 5.21245C1118.28 8.09121 1120.62 10.425 1123.51 10.425Z" fill="url(#paint54_linear_84_4)"/>
</g>
<mask id="mask27_84_4" style="mask-type:alpha" maskUnits="userSpaceOnUse" x="1148" y="0" width="12" height="11">
<path d="M1153.79 10.425C1156.68 10.425 1159.02 8.09121 1159.02 5.21245C1159.02 2.33368 1156.68 0 1153.79 0C1150.9 0 1148.56 2.33368 1148.56 5.21245C1148.56 8.09121 1150.9 10.425 1153.79 10.425Z" fill="url(#paint55_linear_84_4)"/>
</mask>
<g mask="url(#mask27_84_4)">
<path d="M1153.79 10.425C1156.68 10.425 1159.02 8.09121 1159.02 5.21245C1159.02 2.33368 1156.68 0 1153.79 0C1150.9 0 1148.56 2.33368 1148.56 5.21245C1148.56 8.09121 1150.9 10.425 1153.79 10.425Z" fill="url(#paint56_linear_84_4)"/>
</g>
<mask id="mask28_84_4" style="mask-type:alpha" maskUnits="userSpaceOnUse" x="1178" y="0" width="12" height="11">
<path d="M1184.07 10.425C1186.96 10.425 1189.3 8.09121 1189.3 5.21245C1189.3 2.33368 1186.96 0 1184.07 0C1181.18 0 1178.84 2.33368 1178.84 5.21245C1178.84 8.09121 1181.18 10.425 1184.07 10.425Z" fill="url(#paint57_linear_84_4)"/>
</mask>
<g mask="url(#mask28_84_4)">
<path d="M1184.07 10.425C1186.96 10.425 1189.3 8.09121 1189.3 5.21245C1189.3 2.33368 1186.96 0 1184.07 0C1181.18 0 1178.84 2.33368 1178.84 5.21245C1178.84 8.09121 1181.18 10.425 1184.07 10.425Z" fill="url(#paint58_linear_84_4)"/>
</g>
<mask id="mask29_84_4" style="mask-type:alpha" maskUnits="userSpaceOnUse" x="1209" y="0" width="11" height="11">
<path d="M1214.35 10.425C1217.24 10.425 1219.58 8.09121 1219.58 5.21245C1219.58 2.33368 1217.24 0 1214.35 0C1211.47 0 1209.12 2.33368 1209.12 5.21245C1209.12 8.09121 1211.47 10.425 1214.35 10.425Z" fill="url(#paint59_linear_84_4)"/>
</mask>
<g mask="url(#mask29_84_4)">
<path d="M1214.35 10.425C1217.24 10.425 1219.58 8.09121 1219.58 5.21245C1219.58 2.33368 1217.24 0 1214.35 0C1211.47 0 1209.12 2.33368 1209.12 5.21245C1209.12 8.09121 1211.47 10.425 1214.35 10.425Z" fill="url(#paint60_linear_84_4)"/>
</g>
<mask id="mask30_84_4" style="mask-type:alpha" maskUnits="userSpaceOnUse" x="1088" y="26" width="11" height="11">
<path d="M1093.23 36.5958C1096.12 36.5958 1098.46 34.2621 1098.46 31.3833C1098.46 28.5046 1096.12 26.1709 1093.23 26.1709C1090.34 26.1709 1088 28.5046 1088 31.3833C1088 34.2621 1090.34 36.5958 1093.23 36.5958Z" fill="url(#paint61_linear_84_4)"/>
</mask>
<g mask="url(#mask30_84_4)">
<path d="M1093.23 36.5958C1096.12 36.5958 1098.46 34.2621 1098.46 31.3833C1098.46 28.5046 1096.12 26.1709 1093.23 26.1709C1090.34 26.1709 1088 28.5046 1088 31.3833C1088 34.2621 1090.34 36.5958 1093.23 36.5958Z" fill="url(#paint62_linear_84_4)"/>
</g>
<mask id="mask31_84_4" style="mask-type:alpha" maskUnits="userSpaceOnUse" x="1118" y="26" width="11" height="11">
<path d="M1123.51 36.5958C1126.4 36.5958 1128.74 34.2621 1128.74 31.3833C1128.74 28.5046 1126.4 26.1709 1123.51 26.1709C1120.62 26.1709 1118.28 28.5046 1118.28 31.3833C1118.28 34.2621 1120.62 36.5958 1123.51 36.5958Z" fill="url(#paint63_linear_84_4)"/>
</mask>
<g mask="url(#mask31_84_4)">
<path d="M1123.51 36.5958C1126.4 36.5958 1128.74 34.2621 1128.74 31.3833C1128.74 28.5046 1126.4 26.1709 1123.51 26.1709C1120.62 26.1709 1118.28 28.5046 1118.28 31.3833C1118.28 34.2621 1120.62 36.5958 1123.51 36.5958Z" fill="url(#paint64_linear_84_4)"/>
</g>
<mask id="mask32_84_4" style="mask-type:alpha" maskUnits="userSpaceOnUse" x="1148" y="26" width="12" height="11">
<path d="M1153.79 36.5958C1156.68 36.5958 1159.02 34.2621 1159.02 31.3833C1159.02 28.5046 1156.68 26.1709 1153.79 26.1709C1150.9 26.1709 1148.56 28.5046 1148.56 31.3833C1148.56 34.2621 1150.9 36.5958 1153.79 36.5958Z" fill="url(#paint65_linear_84_4)"/>
</mask>
<g mask="url(#mask32_84_4)">
<path d="M1153.79 36.5958C1156.68 36.5958 1159.02 34.2621 1159.02 31.3833C1159.02 28.5046 1156.68 26.1709 1153.79 26.1709C1150.9 26.1709 1148.56 28.5046 1148.56 31.3833C1148.56 34.2621 1150.9 36.5958 1153.79 36.5958Z" fill="url(#paint66_linear_84_4)"/>
</g>
<mask id="mask33_84_4" style="mask-type:alpha" maskUnits="userSpaceOnUse" x="1178" y="26" width="12" height="11">
<path d="M1184.07 36.5958C1186.96 36.5958 1189.3 34.2621 1189.3 31.3833C1189.3 28.5046 1186.96 26.1709 1184.07 26.1709C1181.18 26.1709 1178.84 28.5046 1178.84 31.3833C1178.84 34.2621 1181.18 36.5958 1184.07 36.5958Z" fill="url(#paint67_linear_84_4)"/>
</mask>
<g mask="url(#mask33_84_4)">
<path d="M1184.07 36.5958C1186.96 36.5958 1189.3 34.2621 1189.3 31.3833C1189.3 28.5046 1186.96 26.1709 1184.07 26.1709C1181.18 26.1709 1178.84 28.5046 1178.84 31.3833C1178.84 34.2621 1181.18 36.5958 1184.07 36.5958Z" fill="url(#paint68_linear_84_4)"/>
</g>
<mask id="mask34_84_4" style="mask-type:alpha" maskUnits="userSpaceOnUse" x="1209" y="26" width="11" height="11">
<path d="M1214.35 36.5958C1217.24 36.5958 1219.58 34.2621 1219.58 31.3833C1219.58 28.5046 1217.24 26.1709 1214.35 26.1709C1211.47 26.1709 1209.12 28.5046 1209.12 31.3833C1209.12 34.2621 1211.47 36.5958 1214.35 36.5958Z" fill="url(#paint69_linear_84_4)"/>
</mask>
<g mask="url(#mask34_84_4)">
<path d="M1214.35 36.5958C1217.24 36.5958 1219.58 34.2621 1219.58 31.3833C1219.58 28.5046 1217.24 26.1709 1214.35 26.1709C1211.47 26.1709 1209.12 28.5046 1209.12 31.3833C1209.12 34.2621 1211.47 36.5958 1214.35 36.5958Z" fill="url(#paint70_linear_84_4)"/>
</g>
<mask id="mask35_84_4" style="mask-type:alpha" maskUnits="userSpaceOnUse" x="1088" y="52" width="11" height="11">
<path d="M1093.23 62.7126C1096.12 62.7126 1098.46 60.3789 1098.46 57.5001C1098.46 54.6213 1096.12 52.2876 1093.23 52.2876C1090.34 52.2876 1088 54.6213 1088 57.5001C1088 60.3789 1090.34 62.7126 1093.23 62.7126Z" fill="url(#paint71_linear_84_4)"/>
</mask>
<g mask="url(#mask35_84_4)">
<path d="M1093.23 62.7126C1096.12 62.7126 1098.46 60.3789 1098.46 57.5001C1098.46 54.6213 1096.12 52.2876 1093.23 52.2876C1090.34 52.2876 1088 54.6213 1088 57.5001C1088 60.3789 1090.34 62.7126 1093.23 62.7126Z" fill="url(#paint72_linear_84_4)"/>
</g>
<mask id="mask36_84_4" style="mask-type:alpha" maskUnits="userSpaceOnUse" x="1118" y="52" width="11" height="11">
<path d="M1123.51 62.7126C1126.4 62.7126 1128.74 60.3789 1128.74 57.5001C1128.74 54.6213 1126.4 52.2876 1123.51 52.2876C1120.62 52.2876 1118.28 54.6213 1118.28 57.5001C1118.28 60.3789 1120.62 62.7126 1123.51 62.7126Z" fill="url(#paint73_linear_84_4)"/>
</mask>
<g mask="url(#mask36_84_4)">
<path d="M1123.51 62.7126C1126.4 62.7126 1128.74 60.3789 1128.74 57.5001C1128.74 54.6213 1126.4 52.2876 1123.51 52.2876C1120.62 52.2876 1118.28 54.6213 1118.28 57.5001C1118.28 60.3789 1120.62 62.7126 1123.51 62.7126Z" fill="url(#paint74_linear_84_4)"/>
</g>
<mask id="mask37_84_4" style="mask-type:alpha" maskUnits="userSpaceOnUse" x="1148" y="52" width="12" height="11">
<path d="M1153.79 62.7126C1156.68 62.7126 1159.02 60.3789 1159.02 57.5001C1159.02 54.6213 1156.68 52.2876 1153.79 52.2876C1150.9 52.2876 1148.56 54.6213 1148.56 57.5001C1148.56 60.3789 1150.9 62.7126 1153.79 62.7126Z" fill="url(#paint75_linear_84_4)"/>
</mask>
<g mask="url(#mask37_84_4)">
<path d="M1153.79 62.7126C1156.68 62.7126 1159.02 60.3789 1159.02 57.5001C1159.02 54.6213 1156.68 52.2876 1153.79 52.2876C1150.9 52.2876 1148.56 54.6213 1148.56 57.5001C1148.56 60.3789 1150.9 62.7126 1153.79 62.7126Z" fill="url(#paint76_linear_84_4)"/>
</g>
<mask id="mask38_84_4" style="mask-type:alpha" maskUnits="userSpaceOnUse" x="1178" y="52" width="12" height="11">
<path d="M1184.07 62.7126C1186.96 62.7126 1189.3 60.3789 1189.3 57.5001C1189.3 54.6213 1186.96 52.2876 1184.07 52.2876C1181.18 52.2876 1178.84 54.6213 1178.84 57.5001C1178.84 60.3789 1181.18 62.7126 1184.07 62.7126Z" fill="url(#paint77_linear_84_4)"/>
</mask>
<g mask="url(#mask38_84_4)">
<path d="M1184.07 62.7126C1186.96 62.7126 1189.3 60.3789 1189.3 57.5001C1189.3 54.6213 1186.96 52.2876 1184.07 52.2876C1181.18 52.2876 1178.84 54.6213 1178.84 57.5001C1178.84 60.3789 1181.18 62.7126 1184.07 62.7126Z" fill="url(#paint78_linear_84_4)"/>
</g>
<mask id="mask39_84_4" style="mask-type:alpha" maskUnits="userSpaceOnUse" x="1209" y="52" width="11" height="11">
<path d="M1214.35 62.7126C1217.24 62.7126 1219.58 60.3789 1219.58 57.5001C1219.58 54.6213 1217.24 52.2876 1214.35 52.2876C1211.47 52.2876 1209.12 54.6213 1209.12 57.5001C1209.12 60.3789 1211.47 62.7126 1214.35 62.7126Z" fill="url(#paint79_linear_84_4)"/>
</mask>
<g mask="url(#mask39_84_4)">
<path d="M1214.35 62.7126C1217.24 62.7126 1219.58 60.3789 1219.58 57.5001C1219.58 54.6213 1217.24 52.2876 1214.35 52.2876C1211.47 52.2876 1209.12 54.6213 1209.12 57.5001C1209.12 60.3789 1211.47 62.7126 1214.35 62.7126Z" fill="url(#paint80_linear_84_4)"/>
</g>
<mask id="mask40_84_4" style="mask-type:alpha" maskUnits="userSpaceOnUse" x="1088" y="78" width="11" height="11">
<path d="M1093.23 88.8835C1096.12 88.8835 1098.46 86.5497 1098.46 83.6709C1098.46 80.7922 1096.12 78.4585 1093.23 78.4585C1090.34 78.4585 1088 80.7922 1088 83.6709C1088 86.5497 1090.34 88.8835 1093.23 88.8835Z" fill="url(#paint81_linear_84_4)"/>
</mask>
<g mask="url(#mask40_84_4)">
<path d="M1093.23 88.8835C1096.12 88.8835 1098.46 86.5497 1098.46 83.6709C1098.46 80.7922 1096.12 78.4585 1093.23 78.4585C1090.34 78.4585 1088 80.7922 1088 83.6709C1088 86.5497 1090.34 88.8835 1093.23 88.8835Z" fill="url(#paint82_linear_84_4)"/>
</g>
<mask id="mask41_84_4" style="mask-type:alpha" maskUnits="userSpaceOnUse" x="1118" y="78" width="11" height="11">
<path d="M1123.51 88.8835C1126.4 88.8835 1128.74 86.5497 1128.74 83.6709C1128.74 80.7922 1126.4 78.4585 1123.51 78.4585C1120.62 78.4585 1118.28 80.7922 1118.28 83.6709C1118.28 86.5497 1120.62 88.8835 1123.51 88.8835Z" fill="url(#paint83_linear_84_4)"/>
</mask>
<g mask="url(#mask41_84_4)">
<path d="M1123.51 88.8835C1126.4 88.8835 1128.74 86.5497 1128.74 83.6709C1128.74 80.7922 1126.4 78.4585 1123.51 78.4585C1120.62 78.4585 1118.28 80.7922 1118.28 83.6709C1118.28 86.5497 1120.62 88.8835 1123.51 88.8835Z" fill="url(#paint84_linear_84_4)"/>
</g>
<mask id="mask42_84_4" style="mask-type:alpha" maskUnits="userSpaceOnUse" x="1148" y="78" width="12" height="11">
<path d="M1153.79 88.8835C1156.68 88.8835 1159.02 86.5497 1159.02 83.6709C1159.02 80.7922 1156.68 78.4585 1153.79 78.4585C1150.9 78.4585 1148.56 80.7922 1148.56 83.6709C1148.56 86.5497 1150.9 88.8835 1153.79 88.8835Z" fill="url(#paint85_linear_84_4)"/>
</mask>
<g mask="url(#mask42_84_4)">
<path d="M1153.79 88.8835C1156.68 88.8835 1159.02 86.5497 1159.02 83.6709C1159.02 80.7922 1156.68 78.4585 1153.79 78.4585C1150.9 78.4585 1148.56 80.7922 1148.56 83.6709C1148.56 86.5497 1150.9 88.8835 1153.79 88.8835Z" fill="url(#paint86_linear_84_4)"/>
</g>
<mask id="mask43_84_4" style="mask-type:alpha" maskUnits="userSpaceOnUse" x="1178" y="78" width="12" height="11">
<path d="M1184.07 88.8835C1186.96 88.8835 1189.3 86.5497 1189.3 83.6709C1189.3 80.7922 1186.96 78.4585 1184.07 78.4585C1181.18 78.4585 1178.84 80.7922 1178.84 83.6709C1178.84 86.5497 1181.18 88.8835 1184.07 88.8835Z" fill="url(#paint87_linear_84_4)"/>
</mask>
<g mask="url(#mask43_84_4)">
<path d="M1184.07 88.8835C1186.96 88.8835 1189.3 86.5497 1189.3 83.6709C1189.3 80.7922 1186.96 78.4585 1184.07 78.4585C1181.18 78.4585 1178.84 80.7922 1178.84 83.6709C1178.84 86.5497 1181.18 88.8835 1184.07 88.8835Z" fill="url(#paint88_linear_84_4)"/>
</g>
<mask id="mask44_84_4" style="mask-type:alpha" maskUnits="userSpaceOnUse" x="1209" y="78" width="11" height="11">
<path d="M1214.35 88.8835C1217.24 88.8835 1219.58 86.5497 1219.58 83.6709C1219.58 80.7922 1217.24 78.4585 1214.35 78.4585C1211.47 78.4585 1209.12 80.7922 1209.12 83.6709C1209.12 86.5497 1211.47 88.8835 1214.35 88.8835Z" fill="url(#paint89_linear_84_4)"/>
</mask>
<g mask="url(#mask44_84_4)">
<path d="M1214.35 88.8835C1217.24 88.8835 1219.58 86.5497 1219.58 83.6709C1219.58 80.7922 1217.24 78.4585 1214.35 78.4585C1211.47 78.4585 1209.12 80.7922 1209.12 83.6709C1209.12 86.5497 1211.47 88.8835 1214.35 88.8835Z" fill="url(#paint90_linear_84_4)"/>
</g>
<mask id="mask45_84_4" style="mask-type:alpha" maskUnits="userSpaceOnUse" x="1088" y="104" width="11" height="11">
<path d="M1093.23 115C1096.12 115 1098.46 112.666 1098.46 109.787C1098.46 106.909 1096.12 104.575 1093.23 104.575C1090.34 104.575 1088 106.909 1088 109.787C1088 112.666 1090.34 115 1093.23 115Z" fill="url(#paint91_linear_84_4)"/>
</mask>
<g mask="url(#mask45_84_4)">
<path d="M1093.23 115C1096.12 115 1098.46 112.666 1098.46 109.787C1098.46 106.909 1096.12 104.575 1093.23 104.575C1090.34 104.575 1088 106.909 1088 109.787C1088 112.666 1090.34 115 1093.23 115Z" fill="url(#paint92_linear_84_4)"/>
</g>
<mask id="mask46_84_4" style="mask-type:alpha" maskUnits="userSpaceOnUse" x="1118" y="104" width="11" height="11">
<path d="M1123.51 115C1126.4 115 1128.74 112.666 1128.74 109.787C1128.74 106.909 1126.4 104.575 1123.51 104.575C1120.62 104.575 1118.28 106.909 1118.28 109.787C1118.28 112.666 1120.62 115 1123.51 115Z" fill="url(#paint93_linear_84_4)"/>
</mask>
<g mask="url(#mask46_84_4)">
<path d="M1123.51 115C1126.4 115 1128.74 112.666 1128.74 109.787C1128.74 106.909 1126.4 104.575 1123.51 104.575C1120.62 104.575 1118.28 106.909 1118.28 109.787C1118.28 112.666 1120.62 115 1123.51 115Z" fill="url(#paint94_linear_84_4)"/>
</g>
<mask id="mask47_84_4" style="mask-type:alpha" maskUnits="userSpaceOnUse" x="1148" y="104" width="12" height="11">
<path d="M1153.79 115C1156.68 115 1159.02 112.666 1159.02 109.787C1159.02 106.909 1156.68 104.575 1153.79 104.575C1150.9 104.575 1148.56 106.909 1148.56 109.787C1148.56 112.666 1150.9 115 1153.79 115Z" fill="url(#paint95_linear_84_4)"/>
</mask>
<g mask="url(#mask47_84_4)">
<path d="M1153.79 115C1156.68 115 1159.02 112.666 1159.02 109.787C1159.02 106.909 1156.68 104.575 1153.79 104.575C1150.9 104.575 1148.56 106.909 1148.56 109.787C1148.56 112.666 1150.9 115 1153.79 115Z" fill="url(#paint96_linear_84_4)"/>
</g>
<mask id="mask48_84_4" style="mask-type:alpha" maskUnits="userSpaceOnUse" x="1178" y="104" width="12" height="11">
<path d="M1184.07 115C1186.96 115 1189.3 112.666 1189.3 109.787C1189.3 106.909 1186.96 104.575 1184.07 104.575C1181.18 104.575 1178.84 106.909 1178.84 109.787C1178.84 112.666 1181.18 115 1184.07 115Z" fill="url(#paint97_linear_84_4)"/>
</mask>
<g mask="url(#mask48_84_4)">
<path d="M1184.07 115C1186.96 115 1189.3 112.666 1189.3 109.787C1189.3 106.909 1186.96 104.575 1184.07 104.575C1181.18 104.575 1178.84 106.909 1178.84 109.787C1178.84 112.666 1181.18 115 1184.07 115Z" fill="url(#paint98_linear_84_4)"/>
</g>
<mask id="mask49_84_4" style="mask-type:alpha" maskUnits="userSpaceOnUse" x="1209" y="104" width="11" height="11">
<path d="M1214.35 115C1217.24 115 1219.58 112.666 1219.58 109.787C1219.58 106.909 1217.24 104.575 1214.35 104.575C1211.47 104.575 1209.12 106.909 1209.12 109.787C1209.12 112.666 1211.47 115 1214.35 115Z" fill="url(#paint99_linear_84_4)"/>
</mask>
<g mask="url(#mask49_84_4)">
<path d="M1214.35 115C1217.24 115 1219.58 112.666 1219.58 109.787C1219.58 106.909 1217.24 104.575 1214.35 104.575C1211.47 104.575 1209.12 106.909 1209.12 109.787C1209.12 112.666 1211.47 115 1214.35 115Z" fill="url(#paint100_linear_84_4)"/>
</g>
</g>
<defs>
<linearGradient id="paint0_linear_84_4" x1="54.996" y1="417.134" x2="-16.4057" y2="235.33" gradientUnits="userSpaceOnUse">
<stop/>
<stop offset="1" stop-color="white"/>
</linearGradient>
<linearGradient id="paint1_linear_84_4" x1="54.996" y1="417.134" x2="-16.4057" y2="235.33" gradientUnits="userSpaceOnUse">
<stop stop-color="#97C3F9"/>
<stop offset="1" stop-color="#93C1F9"/>
</linearGradient>
<linearGradient id="paint2_linear_84_4" x1="81.2005" y1="406.843" x2="9.79889" y2="225.039" gradientUnits="userSpaceOnUse">
<stop/>
<stop offset="1" stop-color="white"/>
</linearGradient>
<linearGradient id="paint3_linear_84_4" x1="81.2005" y1="406.843" x2="9.79889" y2="225.039" gradientUnits="userSpaceOnUse">
<stop stop-color="#97C3F9"/>
<stop offset="1" stop-color="#93C1F9"/>
</linearGradient>
<linearGradient id="paint4_linear_84_4" x1="107.405" y1="396.551" x2="36.0033" y2="214.747" gradientUnits="userSpaceOnUse">
<stop/>
<stop offset="1" stop-color="white"/>
</linearGradient>
<linearGradient id="paint5_linear_84_4" x1="107.405" y1="396.551" x2="36.0033" y2="214.747" gradientUnits="userSpaceOnUse">
<stop stop-color="#97C3F9"/>
<stop offset="1" stop-color="#93C1F9"/>
</linearGradient>
<linearGradient id="paint6_linear_84_4" x1="133.609" y1="386.259" x2="62.2075" y2="204.456" gradientUnits="userSpaceOnUse">
<stop/>
<stop offset="1" stop-color="white"/>
</linearGradient>
<linearGradient id="paint7_linear_84_4" x1="133.609" y1="386.259" x2="62.2075" y2="204.456" gradientUnits="userSpaceOnUse">
<stop stop-color="#97C3F9"/>
<stop offset="1" stop-color="#93C1F9"/>
</linearGradient>
<linearGradient id="paint8_linear_84_4" x1="159.813" y1="375.968" x2="88.4119" y2="194.164" gradientUnits="userSpaceOnUse">
<stop/>
<stop offset="1" stop-color="white"/>
</linearGradient>
<linearGradient id="paint9_linear_84_4" x1="159.813" y1="375.968" x2="88.4119" y2="194.164" gradientUnits="userSpaceOnUse">
<stop stop-color="#97C3F9"/>
<stop offset="1" stop-color="#93C1F9"/>
</linearGradient>
<linearGradient id="paint10_linear_84_4" x1="46.0538" y1="420.645" x2="-25.3466" y2="238.843" gradientUnits="userSpaceOnUse">
<stop/>
<stop offset="1" stop-color="white"/>
</linearGradient>
<linearGradient id="paint11_linear_84_4" x1="46.0538" y1="420.645" x2="-25.3466" y2="238.843" gradientUnits="userSpaceOnUse">
<stop stop-color="#97C3F9"/>
<stop offset="1" stop-color="#93C1F9"/>
</linearGradient>
<linearGradient id="paint12_linear_84_4" x1="72.2581" y1="410.354" x2="0.857718" y2="228.551" gradientUnits="userSpaceOnUse">
<stop/>
<stop offset="1" stop-color="white"/>
</linearGradient>
<linearGradient id="paint13_linear_84_4" x1="72.2581" y1="410.354" x2="0.857718" y2="228.551" gradientUnits="userSpaceOnUse">
<stop stop-color="#97C3F9"/>
<stop offset="1" stop-color="#93C1F9"/>
</linearGradient>
<linearGradient id="paint14_linear_84_4" x1="98.4624" y1="400.062" x2="27.062" y2="218.26" gradientUnits="userSpaceOnUse">
<stop/>
<stop offset="1" stop-color="white"/>
</linearGradient>
<linearGradient id="paint15_linear_84_4" x1="98.4624" y1="400.062" x2="27.062" y2="218.26" gradientUnits="userSpaceOnUse">
<stop stop-color="#97C3F9"/>
<stop offset="1" stop-color="#93C1F9"/>
</linearGradient>
<linearGradient id="paint16_linear_84_4" x1="124.667" y1="389.771" x2="53.2663" y2="207.968" gradientUnits="userSpaceOnUse">
<stop/>
<stop offset="1" stop-color="white"/>
</linearGradient>
<linearGradient id="paint17_linear_84_4" x1="124.667" y1="389.771" x2="53.2663" y2="207.968" gradientUnits="userSpaceOnUse">
<stop stop-color="#97C3F9"/>
<stop offset="1" stop-color="#93C1F9"/>
</linearGradient>
<linearGradient id="paint18_linear_84_4" x1="150.871" y1="379.479" x2="79.4707" y2="197.677" gradientUnits="userSpaceOnUse">
<stop/>
<stop offset="1" stop-color="white"/>
</linearGradient>
<linearGradient id="paint19_linear_84_4" x1="150.871" y1="379.479" x2="79.4707" y2="197.677" gradientUnits="userSpaceOnUse">
<stop stop-color="#97C3F9"/>
<stop offset="1" stop-color="#93C1F9"/>
</linearGradient>
<linearGradient id="paint20_linear_84_4" x1="37.1113" y1="424.158" x2="-34.2903" y2="242.354" gradientUnits="userSpaceOnUse">
<stop/>
<stop offset="1" stop-color="white"/>
</linearGradient>
<linearGradient id="paint21_linear_84_4" x1="37.1113" y1="424.158" x2="-34.2903" y2="242.354" gradientUnits="userSpaceOnUse">
<stop stop-color="#97C3F9"/>
<stop offset="1" stop-color="#93C1F9"/>
</linearGradient>
<linearGradient id="paint22_linear_84_4" x1="63.3157" y1="413.867" x2="-8.0859" y2="232.063" gradientUnits="userSpaceOnUse">
<stop/>
<stop offset="1" stop-color="white"/>
</linearGradient>
<linearGradient id="paint23_linear_84_4" x1="63.3157" y1="413.867" x2="-8.0859" y2="232.063" gradientUnits="userSpaceOnUse">
<stop stop-color="#97C3F9"/>
<stop offset="1" stop-color="#93C1F9"/>
</linearGradient>
<linearGradient id="paint24_linear_84_4" x1="89.52" y1="403.575" x2="18.1185" y2="221.771" gradientUnits="userSpaceOnUse">
<stop/>
<stop offset="1" stop-color="white"/>
</linearGradient>
<linearGradient id="paint25_linear_84_4" x1="89.52" y1="403.575" x2="18.1185" y2="221.771" gradientUnits="userSpaceOnUse">
<stop stop-color="#97C3F9"/>
<stop offset="1" stop-color="#93C1F9"/>
</linearGradient>
<linearGradient id="paint26_linear_84_4" x1="115.724" y1="393.283" x2="44.3227" y2="211.48" gradientUnits="userSpaceOnUse">
<stop/>
<stop offset="1" stop-color="white"/>
</linearGradient>
<linearGradient id="paint27_linear_84_4" x1="115.724" y1="393.283" x2="44.3227" y2="211.48" gradientUnits="userSpaceOnUse">
<stop stop-color="#97C3F9"/>
<stop offset="1" stop-color="#93C1F9"/>
</linearGradient>
<linearGradient id="paint28_linear_84_4" x1="141.929" y1="382.992" x2="70.5271" y2="201.188" gradientUnits="userSpaceOnUse">
<stop/>
<stop offset="1" stop-color="white"/>
</linearGradient>
<linearGradient id="paint29_linear_84_4" x1="141.929" y1="382.992" x2="70.5271" y2="201.188" gradientUnits="userSpaceOnUse">
<stop stop-color="#97C3F9"/>
<stop offset="1" stop-color="#93C1F9"/>
</linearGradient>
<linearGradient id="paint30_linear_84_4" x1="28.169" y1="427.67" x2="-43.2327" y2="245.866" gradientUnits="userSpaceOnUse">
<stop/>
<stop offset="1" stop-color="white"/>
</linearGradient>
<linearGradient id="paint31_linear_84_4" x1="28.169" y1="427.67" x2="-43.2327" y2="245.866" gradientUnits="userSpaceOnUse">
<stop stop-color="#97C3F9"/>
<stop offset="1" stop-color="#93C1F9"/>
</linearGradient>
<linearGradient id="paint32_linear_84_4" x1="54.3734" y1="417.379" x2="-17.0283" y2="235.575" gradientUnits="userSpaceOnUse">
<stop/>
<stop offset="1" stop-color="white"/>
</linearGradient>
<linearGradient id="paint33_linear_84_4" x1="54.3734" y1="417.379" x2="-17.0283" y2="235.575" gradientUnits="userSpaceOnUse">
<stop stop-color="#97C3F9"/>
<stop offset="1" stop-color="#93C1F9"/>
</linearGradient>
<linearGradient id="paint34_linear_84_4" x1="80.5776" y1="407.087" x2="9.17606" y2="225.283" gradientUnits="userSpaceOnUse">
<stop/>
<stop offset="1" stop-color="white"/>
</linearGradient>
<linearGradient id="paint35_linear_84_4" x1="80.5776" y1="407.087" x2="9.17606" y2="225.283" gradientUnits="userSpaceOnUse">
<stop stop-color="#97C3F9"/>
<stop offset="1" stop-color="#93C1F9"/>
</linearGradient>
<linearGradient id="paint36_linear_84_4" x1="106.782" y1="396.796" x2="35.3804" y2="214.992" gradientUnits="userSpaceOnUse">
<stop/>
<stop offset="1" stop-color="white"/>
</linearGradient>
<linearGradient id="paint37_linear_84_4" x1="106.782" y1="396.796" x2="35.3804" y2="214.992" gradientUnits="userSpaceOnUse">
<stop stop-color="#97C3F9"/>
<stop offset="1" stop-color="#93C1F9"/>
</linearGradient>
<linearGradient id="paint38_linear_84_4" x1="132.986" y1="386.504" x2="61.5847" y2="204.7" gradientUnits="userSpaceOnUse">
<stop/>
<stop offset="1" stop-color="white"/>
</linearGradient>
<linearGradient id="paint39_linear_84_4" x1="132.986" y1="386.504" x2="61.5847" y2="204.7" gradientUnits="userSpaceOnUse">
<stop stop-color="#97C3F9"/>
<stop offset="1" stop-color="#93C1F9"/>
</linearGradient>
<linearGradient id="paint40_linear_84_4" x1="19.2266" y1="431.182" x2="-52.1751" y2="249.378" gradientUnits="userSpaceOnUse">
<stop/>
<stop offset="1" stop-color="white"/>
</linearGradient>
<linearGradient id="paint41_linear_84_4" x1="19.2266" y1="431.182" x2="-52.1751" y2="249.378" gradientUnits="userSpaceOnUse">
<stop stop-color="#97C3F9"/>
<stop offset="1" stop-color="#93C1F9"/>
</linearGradient>
<linearGradient id="paint42_linear_84_4" x1="45.431" y1="420.89" x2="-25.9706" y2="239.087" gradientUnits="userSpaceOnUse">
<stop/>
<stop offset="1" stop-color="white"/>
</linearGradient>
<linearGradient id="paint43_linear_84_4" x1="45.431" y1="420.89" x2="-25.9706" y2="239.087" gradientUnits="userSpaceOnUse">
<stop stop-color="#97C3F9"/>
<stop offset="1" stop-color="#93C1F9"/>
</linearGradient>
<linearGradient id="paint44_linear_84_4" x1="71.6353" y1="410.599" x2="0.233718" y2="228.795" gradientUnits="userSpaceOnUse">
<stop/>
<stop offset="1" stop-color="white"/>
</linearGradient>
<linearGradient id="paint45_linear_84_4" x1="71.6353" y1="410.599" x2="0.233718" y2="228.795" gradientUnits="userSpaceOnUse">
<stop stop-color="#97C3F9"/>
<stop offset="1" stop-color="#93C1F9"/>
</linearGradient>
<linearGradient id="paint46_linear_84_4" x1="97.8397" y1="400.307" x2="26.438" y2="218.504" gradientUnits="userSpaceOnUse">
<stop/>
<stop offset="1" stop-color="white"/>
</linearGradient>
<linearGradient id="paint47_linear_84_4" x1="97.8397" y1="400.307" x2="26.438" y2="218.504" gradientUnits="userSpaceOnUse">
<stop stop-color="#97C3F9"/>
<stop offset="1" stop-color="#93C1F9"/>
</linearGradient>
<linearGradient id="paint48_linear_84_4" x1="124.044" y1="390.016" x2="52.6424" y2="208.212" gradientUnits="userSpaceOnUse">
<stop/>
<stop offset="1" stop-color="white"/>
</linearGradient>
<linearGradient id="paint49_linear_84_4" x1="124.044" y1="390.016" x2="52.6424" y2="208.212" gradientUnits="userSpaceOnUse">
<stop stop-color="#97C3F9"/>
<stop offset="1" stop-color="#93C1F9"/>
</linearGradient>
<linearGradient id="paint50_linear_84_4" x1="1052.82" y1="49.8468" x2="966.548" y2="474.132" gradientUnits="userSpaceOnUse">
<stop stop-color="#67C3F3"/>
<stop offset="1" stop-color="#5A98F2"/>
</linearGradient>
<linearGradient id="paint51_linear_84_4" x1="1143" y1="131.134" x2="1071.59" y2="-50.67" gradientUnits="userSpaceOnUse">
<stop stop-color="white"/>
<stop offset="1" stop-color="white"/>
</linearGradient>
<linearGradient id="paint52_linear_84_4" x1="1143" y1="131.134" x2="1071.59" y2="-50.67" gradientUnits="userSpaceOnUse">
<stop stop-color="white"/>
<stop offset="1" stop-color="white"/>
</linearGradient>
<linearGradient id="paint53_linear_84_4" x1="1173.28" y1="131.134" x2="1101.88" y2="-50.67" gradientUnits="userSpaceOnUse">
<stop stop-color="white"/>
<stop offset="1" stop-color="white"/>
</linearGradient>
<linearGradient id="paint54_linear_84_4" x1="1173.28" y1="131.134" x2="1101.88" y2="-50.67" gradientUnits="userSpaceOnUse">
<stop stop-color="white"/>
<stop offset="1" stop-color="white"/>
</linearGradient>
<linearGradient id="paint55_linear_84_4" x1="1203.56" y1="131.134" x2="1132.16" y2="-50.67" gradientUnits="userSpaceOnUse">
<stop stop-color="white"/>
<stop offset="1" stop-color="white"/>
</linearGradient>
<linearGradient id="paint56_linear_84_4" x1="1203.56" y1="131.134" x2="1132.16" y2="-50.67" gradientUnits="userSpaceOnUse">
<stop stop-color="white"/>
<stop offset="1" stop-color="white"/>
</linearGradient>
<linearGradient id="paint57_linear_84_4" x1="1233.84" y1="131.134" x2="1162.44" y2="-50.67" gradientUnits="userSpaceOnUse">
<stop stop-color="white"/>
<stop offset="1" stop-color="white"/>
</linearGradient>
<linearGradient id="paint58_linear_84_4" x1="1233.84" y1="131.134" x2="1162.44" y2="-50.67" gradientUnits="userSpaceOnUse">
<stop stop-color="white"/>
<stop offset="1" stop-color="white"/>
</linearGradient>
<linearGradient id="paint59_linear_84_4" x1="1264.12" y1="131.134" x2="1192.72" y2="-50.67" gradientUnits="userSpaceOnUse">
<stop stop-color="white"/>
<stop offset="1" stop-color="white"/>
</linearGradient>
<linearGradient id="paint60_linear_84_4" x1="1264.12" y1="131.134" x2="1192.72" y2="-50.67" gradientUnits="userSpaceOnUse">
<stop stop-color="white"/>
<stop offset="1" stop-color="white"/>
</linearGradient>
<linearGradient id="paint61_linear_84_4" x1="1143" y1="157.303" x2="1071.6" y2="-24.4991" gradientUnits="userSpaceOnUse">
<stop stop-color="white"/>
<stop offset="1" stop-color="white"/>
</linearGradient>
<linearGradient id="paint62_linear_84_4" x1="1143" y1="157.303" x2="1071.6" y2="-24.4991" gradientUnits="userSpaceOnUse">
<stop stop-color="white"/>
<stop offset="1" stop-color="white"/>
</linearGradient>
<linearGradient id="paint63_linear_84_4" x1="1173.28" y1="157.303" x2="1101.88" y2="-24.4991" gradientUnits="userSpaceOnUse">
<stop stop-color="white"/>
<stop offset="1" stop-color="white"/>
</linearGradient>
<linearGradient id="paint64_linear_84_4" x1="1173.28" y1="157.303" x2="1101.88" y2="-24.4991" gradientUnits="userSpaceOnUse">
<stop stop-color="white"/>
<stop offset="1" stop-color="white"/>
</linearGradient>
<linearGradient id="paint65_linear_84_4" x1="1203.56" y1="157.303" x2="1132.16" y2="-24.4991" gradientUnits="userSpaceOnUse">
<stop stop-color="white"/>
<stop offset="1" stop-color="white"/>
</linearGradient>
<linearGradient id="paint66_linear_84_4" x1="1203.56" y1="157.303" x2="1132.16" y2="-24.4991" gradientUnits="userSpaceOnUse">
<stop stop-color="white"/>
<stop offset="1" stop-color="white"/>
</linearGradient>
<linearGradient id="paint67_linear_84_4" x1="1233.84" y1="157.303" x2="1162.44" y2="-24.4991" gradientUnits="userSpaceOnUse">
<stop stop-color="white"/>
<stop offset="1" stop-color="white"/>
</linearGradient>
<linearGradient id="paint68_linear_84_4" x1="1233.84" y1="157.303" x2="1162.44" y2="-24.4991" gradientUnits="userSpaceOnUse">
<stop stop-color="white"/>
<stop offset="1" stop-color="white"/>
</linearGradient>
<linearGradient id="paint69_linear_84_4" x1="1264.12" y1="157.303" x2="1192.72" y2="-24.4991" gradientUnits="userSpaceOnUse">
<stop stop-color="white"/>
<stop offset="1" stop-color="white"/>
</linearGradient>
<linearGradient id="paint70_linear_84_4" x1="1264.12" y1="157.303" x2="1192.72" y2="-24.4991" gradientUnits="userSpaceOnUse">
<stop stop-color="white"/>
<stop offset="1" stop-color="white"/>
</linearGradient>
<linearGradient id="paint71_linear_84_4" x1="1143" y1="183.421" x2="1071.59" y2="1.61761" gradientUnits="userSpaceOnUse">
<stop stop-color="white"/>
<stop offset="1" stop-color="white"/>
</linearGradient>
<linearGradient id="paint72_linear_84_4" x1="1143" y1="183.421" x2="1071.59" y2="1.61761" gradientUnits="userSpaceOnUse">
<stop stop-color="white"/>
<stop offset="1" stop-color="white"/>
</linearGradient>
<linearGradient id="paint73_linear_84_4" x1="1173.28" y1="183.421" x2="1101.88" y2="1.61756" gradientUnits="userSpaceOnUse">
<stop stop-color="white"/>
<stop offset="1" stop-color="white"/>
</linearGradient>
<linearGradient id="paint74_linear_84_4" x1="1173.28" y1="183.421" x2="1101.88" y2="1.61756" gradientUnits="userSpaceOnUse">
<stop stop-color="white"/>
<stop offset="1" stop-color="white"/>
</linearGradient>
<linearGradient id="paint75_linear_84_4" x1="1203.56" y1="183.421" x2="1132.16" y2="1.61756" gradientUnits="userSpaceOnUse">
<stop stop-color="white"/>
<stop offset="1" stop-color="white"/>
</linearGradient>
<linearGradient id="paint76_linear_84_4" x1="1203.56" y1="183.421" x2="1132.16" y2="1.61756" gradientUnits="userSpaceOnUse">
<stop stop-color="white"/>
<stop offset="1" stop-color="white"/>
</linearGradient>
<linearGradient id="paint77_linear_84_4" x1="1233.84" y1="183.421" x2="1162.44" y2="1.61756" gradientUnits="userSpaceOnUse">
<stop stop-color="white"/>
<stop offset="1" stop-color="white"/>
</linearGradient>
<linearGradient id="paint78_linear_84_4" x1="1233.84" y1="183.421" x2="1162.44" y2="1.61756" gradientUnits="userSpaceOnUse">
<stop stop-color="white"/>
<stop offset="1" stop-color="white"/>
</linearGradient>
<linearGradient id="paint79_linear_84_4" x1="1264.12" y1="183.421" x2="1192.72" y2="1.61756" gradientUnits="userSpaceOnUse">
<stop stop-color="white"/>
<stop offset="1" stop-color="white"/>
</linearGradient>
<linearGradient id="paint80_linear_84_4" x1="1264.12" y1="183.421" x2="1192.72" y2="1.61756" gradientUnits="userSpaceOnUse">
<stop stop-color="white"/>
<stop offset="1" stop-color="white"/>
</linearGradient>
<linearGradient id="paint81_linear_84_4" x1="1143" y1="209.592" x2="1071.59" y2="27.7885" gradientUnits="userSpaceOnUse">
<stop stop-color="white"/>
<stop offset="1" stop-color="white"/>
</linearGradient>
<linearGradient id="paint82_linear_84_4" x1="1143" y1="209.592" x2="1071.59" y2="27.7885" gradientUnits="userSpaceOnUse">
<stop stop-color="white"/>
<stop offset="1" stop-color="white"/>
</linearGradient>
<linearGradient id="paint83_linear_84_4" x1="1173.28" y1="209.592" x2="1101.88" y2="27.7885" gradientUnits="userSpaceOnUse">
<stop stop-color="white"/>
<stop offset="1" stop-color="white"/>
</linearGradient>
<linearGradient id="paint84_linear_84_4" x1="1173.28" y1="209.592" x2="1101.88" y2="27.7885" gradientUnits="userSpaceOnUse">
<stop stop-color="white"/>
<stop offset="1" stop-color="white"/>
</linearGradient>
<linearGradient id="paint85_linear_84_4" x1="1203.56" y1="209.592" x2="1132.16" y2="27.7885" gradientUnits="userSpaceOnUse">
<stop stop-color="white"/>
<stop offset="1" stop-color="white"/>
</linearGradient>
<linearGradient id="paint86_linear_84_4" x1="1203.56" y1="209.592" x2="1132.16" y2="27.7885" gradientUnits="userSpaceOnUse">
<stop stop-color="white"/>
<stop offset="1" stop-color="white"/>
</linearGradient>
<linearGradient id="paint87_linear_84_4" x1="1233.84" y1="209.592" x2="1162.44" y2="27.7885" gradientUnits="userSpaceOnUse">
<stop stop-color="white"/>
<stop offset="1" stop-color="white"/>
</linearGradient>
<linearGradient id="paint88_linear_84_4" x1="1233.84" y1="209.592" x2="1162.44" y2="27.7885" gradientUnits="userSpaceOnUse">
<stop stop-color="white"/>
<stop offset="1" stop-color="white"/>
</linearGradient>
<linearGradient id="paint89_linear_84_4" x1="1264.12" y1="209.592" x2="1192.72" y2="27.7885" gradientUnits="userSpaceOnUse">
<stop stop-color="white"/>
<stop offset="1" stop-color="white"/>
</linearGradient>
<linearGradient id="paint90_linear_84_4" x1="1264.12" y1="209.592" x2="1192.72" y2="27.7885" gradientUnits="userSpaceOnUse">
<stop stop-color="white"/>
<stop offset="1" stop-color="white"/>
</linearGradient>
<linearGradient id="paint91_linear_84_4" x1="1143" y1="235.709" x2="1071.59" y2="53.905" gradientUnits="userSpaceOnUse">
<stop stop-color="white"/>
<stop offset="1" stop-color="white"/>
</linearGradient>
<linearGradient id="paint92_linear_84_4" x1="1143" y1="235.709" x2="1071.59" y2="53.905" gradientUnits="userSpaceOnUse">
<stop stop-color="white"/>
<stop offset="1" stop-color="white"/>
</linearGradient>
<linearGradient id="paint93_linear_84_4" x1="1173.28" y1="235.709" x2="1101.88" y2="53.9049" gradientUnits="userSpaceOnUse">
<stop stop-color="white"/>
<stop offset="1" stop-color="white"/>
</linearGradient>
<linearGradient id="paint94_linear_84_4" x1="1173.28" y1="235.709" x2="1101.88" y2="53.9049" gradientUnits="userSpaceOnUse">
<stop stop-color="white"/>
<stop offset="1" stop-color="white"/>
</linearGradient>
<linearGradient id="paint95_linear_84_4" x1="1203.56" y1="235.709" x2="1132.16" y2="53.9049" gradientUnits="userSpaceOnUse">
<stop stop-color="white"/>
<stop offset="1" stop-color="white"/>
</linearGradient>
<linearGradient id="paint96_linear_84_4" x1="1203.56" y1="235.709" x2="1132.16" y2="53.9049" gradientUnits="userSpaceOnUse">
<stop stop-color="white"/>
<stop offset="1" stop-color="white"/>
</linearGradient>
<linearGradient id="paint97_linear_84_4" x1="1233.84" y1="235.709" x2="1162.44" y2="53.9049" gradientUnits="userSpaceOnUse">
<stop stop-color="white"/>
<stop offset="1" stop-color="white"/>
</linearGradient>
<linearGradient id="paint98_linear_84_4" x1="1233.84" y1="235.709" x2="1162.44" y2="53.9049" gradientUnits="userSpaceOnUse">
<stop stop-color="white"/>
<stop offset="1" stop-color="white"/>
</linearGradient>
<linearGradient id="paint99_linear_84_4" x1="1264.12" y1="235.709" x2="1192.72" y2="53.9049" gradientUnits="userSpaceOnUse">
<stop stop-color="white"/>
<stop offset="1" stop-color="white"/>
</linearGradient>
<linearGradient id="paint100_linear_84_4" x1="1264.12" y1="235.709" x2="1192.72" y2="53.9049" gradientUnits="userSpaceOnUse">
<stop stop-color="white"/>
<stop offset="1" stop-color="white"/>
</linearGradient>
</defs>
</svg>
